# xmcd
#
# Track frame offsets: 
#        150
#        9657
#        22755
#        33457
#        46035
#        57447
#        65885
#        79342
#        90615
#        101650
#        112122
#        122595
#        133617
#        146402
#
# Disc length: 2112 seconds
#
# Revision: 2
# Processed by: cddbd v1.5.2PL0 Copyright (c) Steve Scherf et al.
# Submitted via: ExactAudioCopy v0.99pb5
#
DISCID=bc083e0e
DTITLE=Various Artist - Steirische Harmonika Inst.
DYEAR=2005
DGENRE=Folk
TTITLE0=Fam. Laimer - Polkaschwung
TTITLE1=Orig. Ruhrpottsteirer - Harmonika Teufel
TTITLE2=Jacob Bergmann - Sternschnuppen Walzer
TTITLE3=Falkenstoana Trio - Zirkus Renz
TTITLE4=Südtiroler Gaudiexpress - Boarisch Tanz
TTITLE5=Zillertaler Edelweiss Duo - Haxn Schleifa
TTITLE6=Goassberg Muis - Plus und Minus
TTITLE7=Oberpfälzer Spitzboum - Auf zum Tereassenfest
TTITLE8=Joschy der Waldgeist - Weissenbachmarsch
TTITLE9=Dilltal Musikanten - Haubergs Polka
TTITLE10=Zillertaler Aplenflitzen - Kirchtagslandler
TTITLE11=3 Lavanttaler - Lusitg und Froh
TTITLE12=Burggräfler Trio - Steirische Schmankerln
TTITLE13=Zwei Tuxer mit Juliane - Wangspitz Polka
EXTD=
EXTT0=
EXTT1=
EXTT2=
EXTT3=
EXTT4=
EXTT5=
EXTT6=
EXTT7=
EXTT8=
EXTT9=
EXTT10=
EXTT11=
EXTT12=
EXTT13=
PLAYORDER=
